<svg xmlns="http://www.w3.org/2000/svg" width="219.327" height="62.383" viewBox="0 0 219.327 62.383">
  <g id="Group_5824" data-name="Group 5824" transform="translate(-277 -55)">
    <g id="Group_5822" data-name="Group 5822">
      <g id="Group_3" data-name="Group 3" transform="translate(277 55)">
        <rect id="Rectangle_1" data-name="Rectangle 1" width="62.382" height="62.383" rx="10" fill="#183631"/>
        <g id="Group_2" data-name="Group 2" transform="translate(23.898 8.854)">
          <path id="Path_8" data-name="Path 8" d="M155.052,144.188a14.858,14.858,0,0,1,1.209-5.967,15.52,15.52,0,0,1,8.165-8.181,15.291,15.291,0,0,1,11.917,0,15.4,15.4,0,0,1,4.867,3.3,15.718,15.718,0,0,1,3.282,4.883,15.39,15.39,0,0,1,.581,10.332,15.12,15.12,0,0,1-1.79,3.862,9.7,9.7,0,0,1,1.774,2.889,12.138,12.138,0,0,1,.769,4.679,12.411,12.411,0,0,1-1.021,5.308,9.678,9.678,0,0,1-2.716,3.517,10.865,10.865,0,0,1-3.894,1.962,16.893,16.893,0,0,1-4.553.612q-.565,0-1.083-.031t-1.052-.032a6.326,6.326,0,0,0-1.979.3,6.521,6.521,0,0,0-2.041,1.241,3.8,3.8,0,0,1-2.481.974,4.133,4.133,0,0,1-1.648-.345,5.025,5.025,0,0,1-1.429-.926,4.56,4.56,0,0,1-1-1.352,3.651,3.651,0,0,1-.376-1.622,4.029,4.029,0,0,1,.785-2.239,7.981,7.981,0,0,1,2.214-2.128,13.359,13.359,0,0,1,3.407-1.592,14.307,14.307,0,0,1,4.365-.63q1.885,0,3.093-.124a6.189,6.189,0,0,0,1.916-.451,1.908,1.908,0,0,0,.974-.887,3.434,3.434,0,0,0,.267-1.463,3.078,3.078,0,0,0-.235-1.345,3.573,3.573,0,0,0-.424-.691,14.919,14.919,0,0,1-6.532,1.444,14.749,14.749,0,0,1-5.951-1.209,15.759,15.759,0,0,1-4.868-3.282,15.428,15.428,0,0,1-3.3-4.852A14.746,14.746,0,0,1,155.052,144.188Zm8.353,0a6.659,6.659,0,0,0,.55,2.7,6.965,6.965,0,0,0,1.511,2.2,7.083,7.083,0,0,0,2.219,1.476,6.767,6.767,0,0,0,2.676.534,6.963,6.963,0,0,0,2.722-.534,6.848,6.848,0,0,0,2.219-1.476,7.1,7.1,0,0,0,1.495-2.2,6.893,6.893,0,0,0,0-5.4,7.1,7.1,0,0,0-1.495-2.2,6.853,6.853,0,0,0-2.219-1.476,6.97,6.97,0,0,0-2.722-.534,6.773,6.773,0,0,0-2.676.534,7.089,7.089,0,0,0-2.219,1.476,6.974,6.974,0,0,0-1.511,2.2A6.662,6.662,0,0,0,163.405,144.188Z" transform="translate(-155.052 -128.832)" fill="#7ec340"/>
        </g>
      </g>
      <circle id="Ellipse_20" data-name="Ellipse 20" cx="4.5" cy="4.5" r="4.5" transform="translate(288 66)" fill="#ffb902"/>
    </g>
    <g id="Logo" transform="translate(277 55)">
      <g id="Group_1" data-name="Group 1" transform="translate(75.759 11.891)">
        <path id="Path_1" data-name="Path 1" d="M318.64,151.468a3.1,3.1,0,0,1,1.235.247,3.4,3.4,0,0,1,1.011.658,2.986,2.986,0,0,1,.681.964,2.93,2.93,0,0,1,.247,1.21v7.029a2.7,2.7,0,0,1-.294,1.282,4.712,4.712,0,0,1-.741,1.022,16.786,16.786,0,0,1-11.52,4.4,14.826,14.826,0,0,1-3.984-.588A15.751,15.751,0,0,1,294.5,156.84a15.113,15.113,0,0,1-.564-4.149,15.75,15.75,0,0,1,.54-4.137,15.923,15.923,0,0,1,1.54-3.75,15.639,15.639,0,0,1,2.4-3.186,15.383,15.383,0,0,1,3.127-2.468,15.711,15.711,0,0,1,3.715-1.61,14.842,14.842,0,0,1,4.149-.576,15.545,15.545,0,0,1,6.1,1.164,16.191,16.191,0,0,1,5.113,3.49,3.081,3.081,0,0,1,.693,1.023,3.023,3.023,0,0,1,.223,1.14,2.781,2.781,0,0,1-.259,1.176,3.246,3.246,0,0,1-.694.987,3.427,3.427,0,0,1-1.024.682,3.008,3.008,0,0,1-1.224.258,3.079,3.079,0,0,1-1.129-.211,2.879,2.879,0,0,1-.989-.658,9.128,9.128,0,0,0-3.165-2.069,10.009,10.009,0,0,0-3.589-.658,9.008,9.008,0,0,0-3.566.717,9.3,9.3,0,0,0-4.966,4.942,9.47,9.47,0,0,0-.023,7.291,9.346,9.346,0,0,0,4.961,5.012,9.255,9.255,0,0,0,3.747.752,11.55,11.55,0,0,0,3.057-.4,8.362,8.362,0,0,0,2.845-1.45v-2.478h-2.539a3.044,3.044,0,0,1-2.2-.916,3.089,3.089,0,0,1-.646-1,3.169,3.169,0,0,1-.235-1.21,3.087,3.087,0,0,1,.235-1.2,3.415,3.415,0,0,1,.646-1.01,2.868,2.868,0,0,1,.976-.694,3.013,3.013,0,0,1,1.223-.246Z" transform="translate(-293.932 -136.963)" fill="#183631"/>
        <path id="Path_2" data-name="Path 2" d="M372.44,176.221a11.6,11.6,0,0,1,1.034-4.514,12.229,12.229,0,0,1,6.312-6.218,11.772,11.772,0,0,1,4.526-.975h.212a3.223,3.223,0,0,1,2.386.892,3.064,3.064,0,0,1,.835,2.211,2.958,2.958,0,0,1-.258,1.246,3.274,3.274,0,0,1-.693.987,3.073,3.073,0,0,1-1.035.658,3.41,3.41,0,0,1-1.258.235,5.6,5.6,0,0,0-2.221.446,5.877,5.877,0,0,0-1.834,1.223,5.955,5.955,0,0,0-1.258,1.822,5.688,5.688,0,0,0-.494,2.245v7.64a3.153,3.153,0,0,1-.235,1.222,2.9,2.9,0,0,1-.658.976,3.168,3.168,0,0,1-.975.646,3,3,0,0,1-1.187.235,3.26,3.26,0,0,1-1.223-.235,3.2,3.2,0,0,1-1.022-.646,3.11,3.11,0,0,1-.694-.976,2.9,2.9,0,0,1-.258-1.222Z" transform="translate(-343.123 -154.226)" fill="#183631"/>
        <path id="Path_3" data-name="Path 3" d="M399.373,190.387a11.127,11.127,0,0,1,.905-4.466,11.617,11.617,0,0,1,6.113-6.124,11.439,11.439,0,0,1,8.921,0,11.523,11.523,0,0,1,3.644,2.468,11.773,11.773,0,0,1,2.456,3.656,11.443,11.443,0,0,1,0,8.921,11.524,11.524,0,0,1-6.1,6.089,11.439,11.439,0,0,1-8.921,0,11.806,11.806,0,0,1-3.645-2.456,11.552,11.552,0,0,1-2.468-3.633A11.042,11.042,0,0,1,399.373,190.387Zm6.253,0a4.976,4.976,0,0,0,.413,2.022,5.2,5.2,0,0,0,1.131,1.646,5.294,5.294,0,0,0,1.661,1.105,5.075,5.075,0,0,0,2,.4,5.22,5.22,0,0,0,2.038-.4,5.128,5.128,0,0,0,1.661-1.105,5.326,5.326,0,0,0,1.119-1.646,5.169,5.169,0,0,0,0-4.044,5.337,5.337,0,0,0-1.119-1.645,5.138,5.138,0,0,0-1.661-1.1,5.228,5.228,0,0,0-2.038-.4,5.082,5.082,0,0,0-2,.4,5.3,5.3,0,0,0-1.661,1.1,5.207,5.207,0,0,0-1.131,1.645A4.982,4.982,0,0,0,405.626,190.387Z" transform="translate(-359.999 -163.234)" fill="#183631"/>
        <path id="Path_4" data-name="Path 4" d="M478.524,175.238a3.367,3.367,0,0,1,.964.164,3.407,3.407,0,0,1,1.023.517,2.776,2.776,0,0,1,.8.94,2.974,2.974,0,0,1,.318,1.434,3.161,3.161,0,0,1-.306,1.387,2.954,2.954,0,0,1-.847,1.058l-10.979,11.1h9.521a3.387,3.387,0,0,1,1.235.224,2.949,2.949,0,0,1,1,.634,3.122,3.122,0,0,1,.67.951,2.805,2.805,0,0,1,.247,1.176,2.965,2.965,0,0,1-.247,1.2,3.193,3.193,0,0,1-.67.987,3.154,3.154,0,0,1-1,.671,3.109,3.109,0,0,1-1.235.247H462.679a2.96,2.96,0,0,1-1.2-.247,3.177,3.177,0,0,1-1.658-1.657,2.965,2.965,0,0,1-.247-1.2,2.532,2.532,0,0,1,.212-1.128,3.278,3.278,0,0,1,.705-1.011l11.119-11.261h-8.768a2.964,2.964,0,0,1-1.2-.246,3.041,3.041,0,0,1-.975-.671,3.293,3.293,0,0,1-.658-.987,3.014,3.014,0,0,1-.247-1.223,2.874,2.874,0,0,1,.247-1.187,3.349,3.349,0,0,1,.658-.976,2.9,2.9,0,0,1,.975-.658,3.079,3.079,0,0,1,1.2-.235Z" transform="translate(-397.719 -160.945)" fill="#183631"/>
        <path id="Path_5" data-name="Path 5" d="M535.66,182.257a11.042,11.042,0,0,1-4.455-.906,11.81,11.81,0,0,1-3.643-2.457,11.534,11.534,0,0,1-2.468-3.633,11.434,11.434,0,0,1,0-8.921,11.622,11.622,0,0,1,6.112-6.125,11.4,11.4,0,0,1,8.874-.012,11.736,11.736,0,0,1,3.621,2.422,11.577,11.577,0,0,1,2.468,3.6,11.307,11.307,0,0,1,.963,4.4v8.439a3.153,3.153,0,0,1-.247,1.258,3.206,3.206,0,0,1-.682,1.011,3.149,3.149,0,0,1-1.023.681,3.182,3.182,0,0,1-1.246.248,2.939,2.939,0,0,1-2.633-1.482,12.139,12.139,0,0,1-2.679,1.093A11.119,11.119,0,0,1,535.66,182.257Zm-.012-6.278a5.2,5.2,0,0,0,2.039-.4,5.136,5.136,0,0,0,1.66-1.1,5.323,5.323,0,0,0,1.12-1.645,5.171,5.171,0,0,0,0-4.045,5.338,5.338,0,0,0-1.12-1.645,5.16,5.16,0,0,0-1.66-1.1,5.232,5.232,0,0,0-2.039-.4,5.073,5.073,0,0,0-2,.4,5.332,5.332,0,0,0-1.662,1.1,5.239,5.239,0,0,0-1.13,1.645,5.17,5.17,0,0,0,0,4.045,5.225,5.225,0,0,0,1.13,1.645,5.307,5.307,0,0,0,1.662,1.1A5.047,5.047,0,0,0,535.648,175.979Z" transform="translate(-438.204 -150.966)" fill="#183631"/>
        <path id="Path_6" data-name="Path 6" d="M592.126,170.949a11.623,11.623,0,0,1,1.035-4.514,12.221,12.221,0,0,1,6.313-6.218,11.763,11.763,0,0,1,4.525-.975h.212a3.227,3.227,0,0,1,2.387.893,3.067,3.067,0,0,1,.834,2.21,2.956,2.956,0,0,1-.258,1.246,3.242,3.242,0,0,1-.694.987,3.045,3.045,0,0,1-1.034.658,3.414,3.414,0,0,1-1.258.236,5.6,5.6,0,0,0-2.222.446,5.877,5.877,0,0,0-1.834,1.223,5.955,5.955,0,0,0-1.257,1.822,5.67,5.67,0,0,0-.494,2.246v7.64a3.132,3.132,0,0,1-.236,1.223,2.919,2.919,0,0,1-.658.976,3.175,3.175,0,0,1-.976.646,3.006,3.006,0,0,1-1.187.236,3.268,3.268,0,0,1-1.222-.236,3.191,3.191,0,0,1-1.023-.646,3.116,3.116,0,0,1-.694-.976,2.892,2.892,0,0,1-.259-1.223Z" transform="translate(-480.773 -150.922)" fill="#183631"/>
        <path id="Path_7" data-name="Path 7" d="M628.423,198.011a11.026,11.026,0,0,1-4.455-.9,11.794,11.794,0,0,1-3.644-2.457,11.549,11.549,0,0,1-2.468-3.632,11.448,11.448,0,0,1,0-8.921,11.614,11.614,0,0,1,6.113-6.124,11.4,11.4,0,0,1,8.874-.013,11.751,11.751,0,0,1,3.62,2.422,11.58,11.58,0,0,1,2.469,3.6,11.31,11.31,0,0,1,.964,4.4v8.439a3.177,3.177,0,0,1-3.2,3.2,2.937,2.937,0,0,1-2.633-1.48,12.061,12.061,0,0,1-2.681,1.092A11.112,11.112,0,0,1,628.423,198.011Zm-.011-6.277a5.238,5.238,0,0,0,2.038-.4,5.152,5.152,0,0,0,1.66-1.105,5.316,5.316,0,0,0,1.12-1.646,5.165,5.165,0,0,0,0-4.044,5.318,5.318,0,0,0-1.12-1.646,5.148,5.148,0,0,0-1.66-1.1,5.232,5.232,0,0,0-2.038-.4,5.083,5.083,0,0,0-2,.4,5.31,5.31,0,0,0-1.661,1.1,5.238,5.238,0,0,0-1.132,1.646,5.168,5.168,0,0,0,0,4.044,5.237,5.237,0,0,0,1.132,1.646,5.314,5.314,0,0,0,1.661,1.105A5.089,5.089,0,0,0,628.412,191.735Z" transform="translate(-496.328 -160.838)" fill="#183631"/>
      </g>
    </g>
  </g>
</svg>
