<?xml version="1.0" encoding="UTF-8" standalone="no"?>
<!DOCTYPE svg PUBLIC "-//W3C//DTD SVG 1.1//EN" "http://www.w3.org/Graphics/SVG/1.1/DTD/svg11.dtd">
<svg width="100%" height="100%" viewBox="0 0 2432 520" version="1.1" xmlns="http://www.w3.org/2000/svg" xmlns:xlink="http://www.w3.org/1999/xlink" xml:space="preserve" xmlns:serif="http://www.serif.com/" style="fill-rule:evenodd;clip-rule:evenodd;stroke-linejoin:round;stroke-miterlimit:2;">
    <g transform="matrix(1,0,0,1,-452.538,-573.438)">
        <g transform="matrix(12.3749,0,0,12.3749,-3150.27,-266.916)">
            <g transform="matrix(1,0,0,1,-2.74203,2.71305)">
                <g id="Group_5822" transform="matrix(0.673316,0,0,0.673316,106.78,28.2877)">
                    <g id="Group_3" transform="matrix(1,0,0,1,277.878,54.8138)">
                        <path id="Rectangle_1" d="M62.382,1.2C62.382,0.538 61.844,0 61.182,0L1.2,0C0.538,0 0,0.538 0,1.2L0,61.183C0,61.845 0.538,62.383 1.2,62.383L61.182,62.383C61.844,62.383 62.382,61.845 62.382,61.183L62.382,1.2Z" style="fill:rgb(24,54,49);"/>
                        <g transform="matrix(1,0,0,1,-132.234,-119.978)">
                            <g id="Group_2">
                                <path id="Path_8" d="M155.052,144.188C155.039,142.137 155.45,140.105 156.261,138.221C157.827,134.546 160.754,131.613 164.426,130.04C168.233,128.429 172.536,128.429 176.343,130.04C178.162,130.817 179.815,131.938 181.21,133.34C182.602,134.747 183.715,136.403 184.492,138.223C185.872,141.496 186.078,145.148 185.073,148.555C184.661,149.92 184.059,151.221 183.283,152.417C184.039,153.268 184.64,154.246 185.057,155.306C185.618,156.8 185.88,158.39 185.826,159.985C185.88,161.808 185.531,163.62 184.805,165.293C184.185,166.66 183.255,167.864 182.089,168.81C180.937,169.72 179.612,170.388 178.195,170.772C176.712,171.182 175.18,171.388 173.642,171.384C173.265,171.384 172.904,171.374 172.559,171.353C172.214,171.332 171.863,171.322 171.507,171.321C170.836,171.315 170.168,171.417 169.528,171.621C168.777,171.905 168.085,172.326 167.487,172.862C166.805,173.475 165.923,173.822 165.006,173.836C164.439,173.835 163.878,173.718 163.358,173.491C162.832,173.266 162.349,172.953 161.929,172.565C161.515,172.18 161.176,171.722 160.929,171.213C160.68,170.709 160.552,170.153 160.553,169.591C160.584,168.783 160.858,168.003 161.338,167.352C161.931,166.506 162.683,165.783 163.552,165.224C164.607,164.535 165.754,163.999 166.959,163.632C168.373,163.198 169.845,162.985 171.324,163.002C172.581,163.002 173.612,162.961 174.417,162.878C175.076,162.831 175.722,162.679 176.333,162.427C176.753,162.256 177.098,161.942 177.307,161.54C177.502,161.078 177.593,160.578 177.574,160.077C177.597,159.617 177.517,159.157 177.339,158.732C177.224,158.486 177.082,158.255 176.915,158.041C174.875,159.011 172.641,159.504 170.383,159.485C168.337,159.499 166.31,159.087 164.432,158.276C162.618,157.497 160.967,156.383 159.564,154.994C158.164,153.603 157.043,151.956 156.264,150.142C155.451,148.263 155.038,146.235 155.052,144.188ZM163.405,144.188C163.398,145.116 163.585,146.036 163.955,146.888C164.312,147.712 164.825,148.459 165.466,149.088C166.106,149.716 166.859,150.217 167.685,150.564C168.531,150.922 169.442,151.104 170.361,151.098C171.295,151.104 172.221,150.923 173.083,150.564C173.912,150.222 174.666,149.721 175.302,149.088C175.934,148.455 176.442,147.709 176.797,146.888C177.531,145.164 177.531,143.212 176.797,141.488C176.442,140.667 175.934,139.921 175.302,139.288C174.666,138.656 173.912,138.154 173.083,137.812C172.221,137.453 171.295,137.272 170.361,137.278C169.442,137.273 168.532,137.454 167.685,137.812C166.859,138.159 166.106,138.66 165.466,139.288C164.825,139.917 164.312,140.664 163.955,141.488C163.586,142.34 163.398,143.26 163.405,144.188Z" style="fill:rgb(126,195,64);fill-rule:nonzero;"/>
                            </g>
                        </g>
                    </g>
                    <g id="Ellipse_20" transform="matrix(1,0,0,1,287.04,66)">
                        <circle cx="4.5" cy="4.5" r="4.5" style="fill:rgb(255,185,2);"/>
                    </g>
                </g>
                <g transform="matrix(0.794206,0,0,0.794206,-686.865,-607.505)">
                    <path d="M1324.73,891.355L1324.73,887.255C1321.99,890.522 1318.29,892.155 1313.63,892.155C1310.13,892.155 1307.01,891.414 1304.28,889.93C1301.54,888.447 1299.4,886.297 1297.85,883.48C1296.3,880.664 1295.53,877.339 1295.53,873.505C1295.53,869.639 1296.3,866.305 1297.85,863.505C1299.4,860.705 1301.54,858.564 1304.28,857.08C1307.01,855.597 1310.13,854.855 1313.63,854.855C1317.93,854.855 1321.56,855.914 1324.53,858.03C1327.49,860.147 1329.49,862.905 1330.53,866.305L1320.98,867.455C1320.34,865.855 1319.42,864.605 1318.2,863.705C1316.99,862.805 1315.46,862.355 1313.63,862.355C1311.13,862.355 1309.1,863.255 1307.55,865.055C1306,866.855 1305.23,869.672 1305.23,873.505C1305.23,877.339 1306,880.155 1307.55,881.955C1309.1,883.755 1311.13,884.655 1313.63,884.655C1315.56,884.655 1317.26,884.155 1318.73,883.155C1320.19,882.155 1321.28,880.639 1321.98,878.605L1314.23,878.605L1314.23,871.955L1330.93,871.955L1330.93,891.355L1324.73,891.355Z" style="fill:rgb(26,54,49);fill-rule:nonzero;"/>
                    <path d="M1342.28,868.955L1342.48,868.955C1344.14,865.755 1346.86,864.155 1350.63,864.155C1351.06,864.155 1351.51,864.222 1351.98,864.355L1351.98,872.555C1351.18,872.422 1350.19,872.355 1349.03,872.355C1347.03,872.355 1345.47,872.83 1344.35,873.78C1343.24,874.73 1342.68,876.372 1342.68,878.705L1342.68,891.355L1333.78,891.355L1333.78,864.805L1342.28,864.805L1342.28,868.955Z" style="fill:rgb(26,54,49);fill-rule:nonzero;"/>
                    <path d="M1367.23,864.155C1371.69,864.155 1375.18,865.389 1377.68,867.855C1380.18,870.322 1381.43,873.739 1381.43,878.105C1381.43,882.439 1380.18,885.839 1377.68,888.305C1375.18,890.772 1371.69,892.005 1367.23,892.005C1362.73,892.005 1359.22,890.772 1356.7,888.305C1354.18,885.839 1352.93,882.439 1352.93,878.105C1352.93,873.739 1354.18,870.322 1356.7,867.855C1359.22,865.389 1362.73,864.155 1367.23,864.155ZM1367.23,885.605C1370.66,885.605 1372.38,883.105 1372.38,878.105C1372.38,873.072 1370.66,870.555 1367.23,870.555C1363.73,870.555 1361.98,873.072 1361.98,878.105C1361.98,883.105 1363.73,885.605 1367.23,885.605Z" style="fill:rgb(26,54,49);fill-rule:nonzero;"/>
                    <path d="M1382.33,884.805L1394.73,871.505L1382.98,871.505L1382.98,864.805L1406.18,864.805L1406.18,871.355L1393.78,884.705L1406.18,884.705L1406.18,891.355L1382.33,891.355L1382.33,884.805Z" style="fill:rgb(26,54,49);fill-rule:nonzero;"/>
                    <path d="M1425.88,891.355C1425.38,890.755 1425.13,889.472 1425.13,887.505C1424.49,888.905 1423.4,890.005 1421.85,890.805C1420.3,891.605 1418.53,892.005 1416.53,892.005C1414.99,892.005 1413.54,891.689 1412.18,891.055C1410.81,890.422 1409.71,889.522 1408.88,888.355C1408.04,887.189 1407.63,885.805 1407.63,884.205C1407.63,881.505 1408.51,879.489 1410.28,878.155C1412.04,876.822 1414.73,875.922 1418.33,875.455C1420.16,875.189 1421.56,874.93 1422.53,874.68C1423.49,874.43 1424.17,874.147 1424.55,873.83C1424.93,873.514 1425.13,873.089 1425.13,872.555C1425.13,871.722 1424.8,871.08 1424.15,870.63C1423.5,870.18 1422.59,869.955 1421.43,869.955C1420.36,869.955 1419.43,870.255 1418.63,870.855C1417.83,871.455 1417.26,872.305 1416.93,873.405L1408.68,872.555C1409.24,869.922 1410.68,867.864 1412.98,866.38C1415.28,864.897 1418.14,864.155 1421.58,864.155C1425.68,864.155 1428.78,864.947 1430.88,866.53C1432.98,868.114 1434.03,870.355 1434.03,873.255L1434.03,886.405C1434.03,887.839 1434.07,888.914 1434.15,889.63C1434.24,890.347 1434.43,890.922 1434.73,891.355L1425.88,891.355ZM1425.13,878.855C1424.76,879.089 1424.16,879.297 1423.33,879.48C1422.49,879.664 1421.58,879.839 1420.58,880.005C1417.98,880.505 1416.68,881.672 1416.68,883.505C1416.68,884.405 1416.97,885.114 1417.55,885.63C1418.13,886.147 1418.91,886.405 1419.88,886.405C1420.68,886.405 1421.48,886.222 1422.28,885.855C1423.08,885.489 1423.75,884.914 1424.3,884.13C1424.85,883.347 1425.13,882.355 1425.13,881.155L1425.13,878.855Z" style="fill:rgb(26,54,49);fill-rule:nonzero;"/>
                    <path d="M1445.23,868.955L1445.43,868.955C1447.09,865.755 1449.81,864.155 1453.58,864.155C1454.01,864.155 1454.46,864.222 1454.93,864.355L1454.93,872.555C1454.13,872.422 1453.14,872.355 1451.98,872.355C1449.98,872.355 1448.42,872.83 1447.3,873.78C1446.18,874.73 1445.63,876.372 1445.63,878.705L1445.63,891.355L1436.73,891.355L1436.73,864.805L1445.23,864.805L1445.23,868.955Z" style="fill:rgb(26,54,49);fill-rule:nonzero;"/>
                    <path d="M1473.43,891.355C1472.93,890.755 1472.68,889.472 1472.68,887.505C1472.04,888.905 1470.95,890.005 1469.4,890.805C1467.85,891.605 1466.08,892.005 1464.08,892.005C1462.54,892.005 1461.09,891.689 1459.73,891.055C1458.36,890.422 1457.26,889.522 1456.43,888.355C1455.59,887.189 1455.18,885.805 1455.18,884.205C1455.18,881.505 1456.06,879.489 1457.83,878.155C1459.59,876.822 1462.28,875.922 1465.88,875.455C1467.71,875.189 1469.11,874.93 1470.08,874.68C1471.04,874.43 1471.72,874.147 1472.1,873.83C1472.49,873.514 1472.68,873.089 1472.68,872.555C1472.68,871.722 1472.35,871.08 1471.7,870.63C1471.05,870.18 1470.14,869.955 1468.98,869.955C1467.91,869.955 1466.98,870.255 1466.18,870.855C1465.38,871.455 1464.81,872.305 1464.48,873.405L1456.23,872.555C1456.79,869.922 1458.23,867.864 1460.53,866.38C1462.83,864.897 1465.69,864.155 1469.13,864.155C1473.23,864.155 1476.33,864.947 1478.43,866.53C1480.53,868.114 1481.58,870.355 1481.58,873.255L1481.58,886.405C1481.58,887.839 1481.62,888.914 1481.7,889.63C1481.79,890.347 1481.98,890.922 1482.28,891.355L1473.43,891.355ZM1472.68,878.855C1472.31,879.089 1471.71,879.297 1470.88,879.48C1470.04,879.664 1469.13,879.839 1468.13,880.005C1465.53,880.505 1464.23,881.672 1464.23,883.505C1464.23,884.405 1464.52,885.114 1465.1,885.63C1465.68,886.147 1466.46,886.405 1467.43,886.405C1468.23,886.405 1469.03,886.222 1469.83,885.855C1470.63,885.489 1471.3,884.914 1471.85,884.13C1472.4,883.347 1472.68,882.355 1472.68,881.155L1472.68,878.855Z" style="fill:rgb(26,54,49);fill-rule:nonzero;"/>
                </g>
            </g>
        </g>
    </g>
</svg>
